<?xml version="1.0" encoding="UTF-8" standalone="no"?>
<svg
   xmlns:dc="http://purl.org/dc/elements/1.1/"
   xmlns:cc="http://creativecommons.org/ns#"
   xmlns:rdf="http://www.w3.org/1999/02/22-rdf-syntax-ns#"
   xmlns:svg="http://www.w3.org/2000/svg"
   xmlns="http://www.w3.org/2000/svg"
   xmlns:sodipodi="http://sodipodi.sourceforge.net/DTD/sodipodi-0.dtd"
   xmlns:inkscape="http://www.inkscape.org/namespaces/inkscape"
   version="1.1"
   id="Ebene_1"
   x="0px"
   y="0px"
   viewBox="0 0 344.7 63.6"
   style="enable-background:new 0 0 344.7 63.6;"
   xml:space="preserve"
   preserveAspectRatio="xMinYMin meet"
   sodipodi:docname="INCYDE_Logo_NEW.svg"
   inkscape:version="1.0.2-2 (e86c870879, 2021-01-15)"><metadata
   id="metadata25"><rdf:RDF><cc:Work
       rdf:about=""><dc:format>image/svg+xml</dc:format><dc:type
         rdf:resource="http://purl.org/dc/dcmitype/StillImage" /><dc:title></dc:title></cc:Work></rdf:RDF></metadata><defs
   id="defs23" /><sodipodi:namedview
   pagecolor="#ffffff"
   bordercolor="#666666"
   borderopacity="1"
   objecttolerance="10"
   gridtolerance="10"
   guidetolerance="10"
   inkscape:pageopacity="0"
   inkscape:pageshadow="2"
   inkscape:window-width="1592"
   inkscape:window-height="806"
   id="namedview21"
   showgrid="false"
   inkscape:zoom="2.9387872"
   inkscape:cx="156.99817"
   inkscape:cy="31.799999"
   inkscape:window-x="1979"
   inkscape:window-y="251"
   inkscape:window-maximized="0"
   inkscape:current-layer="Ebene_1" />
<style
   type="text/css"
   id="style2">
	.st0{fill:#32FA5A;}
	.st1{fill:#00BEC8;}
</style>
<rect
   x="25.4"
   y="25.4"
   class="st0"
   width="12.7"
   height="12.7"
   id="rect4"
   style="fill:#3ce664;fill-opacity:1" />
<path
   class="st1"
   d="M0,0v63.6h63.6V0H0z M50.9,50.9H12.7V12.7h38.1V50.9z"
   id="path6"
   style="fill:#41c8d7;fill-opacity:1" />
<path
   class="st0"
   d="M89,0h15.5v63.6H89V0z"
   id="path8"
   style="fill:#3ce664;fill-opacity:1" />
<path
   class="st0"
   d="M141.1,0h14.3v63.6h-13.9l-15.1-38.1v38.1h-14.2V0h14.1l14.9,38V0z"
   id="path10"
   style="fill:#3ce664;fill-opacity:1" />
<path
   class="st1"
   d="M203.5,22.3h-15.7v-10c0-1.7-0.9-2.5-2.8-2.5h-4.5c-2,0-2.9,0.8-2.9,2.5v39c-0.1,0.7,0.2,1.4,0.7,1.9  c0.7,0.4,1.5,0.6,2.3,0.5h4.5c0.8,0.1,1.5-0.1,2.2-0.5c0.5-0.5,0.7-1.2,0.7-1.9v-9.7h15.7v11c0,7.3-4.6,11-13.8,11h-13.9  c-9.2,0-13.7-3.7-13.7-11V11c0-7.3,4.6-11,13.7-11h13.9c9.2,0,13.8,3.7,13.8,11L203.5,22.3z"
   id="path12"
   style="fill:#41c8d7;fill-opacity:1" />
<path
   class="st1"
   d="M237.4,63.6h-15.6V43L204.4,0h15.9l9.3,29.9L238.1,0H254l-16.7,43.1L237.4,63.6z"
   id="path14"
   style="fill:#41c8d7;fill-opacity:1" />
<path
   class="st1"
   d="M257.3,0h28.9c9.2,0,13.8,3.7,13.8,11v41.5c0,7.4-4.6,11.1-13.8,11.1h-28.9V0z M284.4,51.3v-39  c0-1.7-1-2.5-2.9-2.5h-8.6v44h8.6C283.4,53.8,284.4,52.9,284.4,51.3L284.4,51.3z"
   id="path16"
   style="fill:#41c8d7;fill-opacity:1" />
<path
   class="st1"
   d="M322.4,53.1h22.2v10.5h-37.8V0h36.9v10.5h-21.4V26h18.2v10.5h-18.2V53.1z"
   id="path18"
   style="fill:#41c8d7;fill-opacity:1" />
</svg>
